<svg xmlns="http://www.w3.org/2000/svg" width="100" height="45" viewBox="0 0 100 45"><path fill="#ff5252" d="M36.38 20.4l-4.491 4.552a3.682 3.682 0 0 1-5.258 0l-.001-.001a3.804 3.804 0 0 1 0-5.329l4.491-4.552a3.682 3.682 0 0 1 5.258 0l.001.001a3.806 3.806 0 0 1 0 5.329zM29.49 13.417l-4.491 4.552a3.682 3.682 0 0 1-5.258 0l-.001-.001a3.804 3.804 0 0 1 0-5.329l4.491-4.552a3.682 3.682 0 0 1 5.258 0l.001.001a3.804 3.804 0 0 1 0 5.329zM22.6 6.433l-4.491 4.552a3.682 3.682 0 0 1-5.258 0l-.001-.001a3.804 3.804 0 0 1 0-5.329l4.491-4.552a3.682 3.682 0 0 1 5.258 0l.001.001a3.804 3.804 0 0 1 0 5.329zM10.068 24.101h-6.35C1.664 24.101 0 22.414 0 20.333v-.001c0-2.081 1.664-3.768 3.718-3.768h6.351c2.053 0 3.718 1.687 3.718 3.768v.001c-.001 2.081-1.665 3.768-3.719 3.768zM56.548 8.596a3.683 3.683 0 0 0-5.258-.001l-6.48 6.568a3.8 3.8 0 0 0 .037 5.283l.001.001a3.68 3.68 0 0 0 5.258 0l1.836-1.861.004.004 4.603-4.665a3.805 3.805 0 0 0-.001-5.329z"/><path fill="#ff5252" d="M47.476 22.533a4.626 4.626 0 0 1-3.315-1.392c-1.073-1.088-1.498-2.574-1.311-3.992l-9.329 9.456a3.804 3.804 0 0 0 0 5.329l.001.001a3.682 3.682 0 0 0 5.258 0l9.338-9.465c-.213.029-.424.063-.642.063z"/><path fill="#659d32" d="M43.793 14.271l5.258-5.33-.341-.346a3.682 3.682 0 0 0-5.258 0l-.001.001a3.804 3.804 0 0 0 0 5.329l.342.346zM100 20.332a3.77 3.77 0 0 0-1.014-2.572l.007-.007-.072-.073-.022-.022L87.181 5.697c-.013-.013-.021-.029-.034-.042l-4.491-4.552a3.682 3.682 0 0 0-5.258 0l.002.001a3.804 3.804 0 0 0 0 5.329l2.52 2.555-1.631 1.653-2.52-2.555a3.682 3.682 0 0 0-5.258 0l-.001.001a3.804 3.804 0 0 0 0 5.329l2.521 2.555-1.632 1.654-2.521-2.555a3.682 3.682 0 0 0-5.258 0l-.001.001a3.804 3.804 0 0 0 0 5.329l2.521 2.555-1.632 1.654-3.991-4.045-4.264-4.322-5.258 5.33L61.22 31.936l11.808 11.969a3.671 3.671 0 0 0 5.093.136l.01.01.095-.096c.019-.019.042-.031.06-.05l.001-.001c.019-.019.031-.042.05-.062l20.512-20.791c.04-.038.078-.077.115-.117l.111-.113-.011-.011a3.77 3.77 0 0 0 .936-2.478z"/></svg>
